<!--
SPDX-FileCopyrightText: 2021 Ignacy Kajdan <git@verahawk.com>
SPDX-License-Identifier: LGPL-3.0-or-later
-->
<svg version="1.1" viewBox="0 0 64 64" xmlns="http://www.w3.org/2000/svg" xmlns:xlink="http://www.w3.org/1999/xlink">
  <defs>
    <linearGradient id="c">
      <stop offset="0"/>
      <stop stop-opacity="0" offset="1"/>
    </linearGradient>
    <linearGradient id="a" x2="0" y1="543.8" y2="502.66" gradientTransform="matrix(.66667 0 0 .63518 128.19 198.52)" gradientUnits="userSpaceOnUse">
      <stop stop-color="#c6cdd1" offset="0"/>
      <stop stop-color="#e0e5e7" offset="1"/>
    </linearGradient>
    <linearGradient id="e" x1="392.57" x2="401.57" y1="524.8" y2="539.8" gradientTransform="translate(-7e-6,2.9e-5)" gradientUnits="userSpaceOnUse" xlink:href="#c"/>
    <linearGradient id="f" x1="379.57" x2="407.57" y1="540.8" y2="555.8" gradientTransform="translate(-7e-6,2.9e-5)" gradientUnits="userSpaceOnUse" xlink:href="#c"/>
  </defs>
  <g transform="translate(-385.57,-511.8)">
    <rect x="385.57" y="517.8" width="30" height="52" rx="0" fill="url(#a)"/>
    <path d="m386.57 567.8 28-44 1 1v45h-27z" fill="url(#f)" fill-rule="evenodd" opacity=".2"/>
    <rect x="385.57" y="517.8" width="30" height="4" fill="#566069"/>
    <rect x="385.57" y="521.8" width="30" height="1" fill="#3daee9"/>
    <rect x="386.57" y="523.8" width="28" height="44" fill="#fff"/>
    <rect x="412.57" y="518.8" width="2" height="2" rx="1" fill="#eff0f1"/>
  </g>
  <g transform="translate(-352.57,-511.8)">
    <rect x="386.57" y="517.8" width="30" height="24" rx="0" fill="url(#a)"/>
    <path d="m387.57 539.8 28-16 1 1v17h-27z" fill="url(#e)" fill-rule="evenodd" opacity=".2"/>
    <rect x="386.57" y="517.8" width="30" height="4" fill="#566069"/>
    <rect x="386.57" y="521.8" width="30" height="1" fill="#3daee9"/>
    <rect x="387.57" y="523.8" width="28" height="16" fill="#fff"/>
    <rect x="413.57" y="518.8" width="2" height="2" rx="1" fill="#eff0f1"/>
  </g>
  <g transform="translate(-352.57,-483.8)">
    <rect x="386.57" y="517.8" width="30" height="24" rx="0" fill="url(#a)"/>
    <path d="m387.57 539.8 28-16 1 1v17h-27z" fill="url(#e)" fill-rule="evenodd" opacity=".2"/>
    <rect x="386.57" y="517.8" width="30" height="4" fill="#566069"/>
    <rect x="386.57" y="521.8" width="30" height="1" fill="#3daee9"/>
    <rect x="387.57" y="523.8" width="28" height="16" fill="#fff"/>
    <rect x="413.57" y="518.8" width="2" height="2" rx="1" fill="#eff0f1"/>
  </g>
</svg>
