<!--
SPDX-FileCopyrightText: 2021 Ignacy Kajdan <git@verahawk.com>
SPDX-License-Identifier: LGPL-3.0-or-later
-->
<svg version="1.1" viewBox="0 0 64 64" xmlns="http://www.w3.org/2000/svg" xmlns:xlink="http://www.w3.org/1999/xlink">
  <defs>
    <linearGradient id="c">
      <stop offset="0"/>
      <stop stop-opacity="0" offset="1"/>
    </linearGradient>
    <linearGradient id="a" x2="0" y1="543.8" y2="502.66" gradientTransform="matrix(.66667 0 0 .63518 128.19 198.52)" gradientUnits="userSpaceOnUse">
      <stop stop-color="#c6cdd1" offset="0"/>
      <stop stop-color="#e0e5e7" offset="1"/>
    </linearGradient>
    <linearGradient id="e" x1="391.57" x2="400.03" y1="525.8" y2="540.6" gradientTransform="translate(-7e-6,2.9e-5)" gradientUnits="userSpaceOnUse" xlink:href="#c"/>
    <linearGradient id="f" x1="380.4" x2="408.72" y1="541.17" y2="556.25" gradientTransform="translate(-7e-6,2.9e-5)" gradientUnits="userSpaceOnUse" xlink:href="#c"/>
  </defs>
  <g transform="translate(-385.57 -511.8)">
    <rect x="385.57" y="517.8" width="31" height="52" rx="0" fill="url(#a)"/>
    <path d="m386.57 567.8 29-44 1 1-2e-5 45h-28z" fill="url(#f)" fill-rule="evenodd" opacity=".2"/>
    <rect x="385.57" y="517.8" width="31" height="4" fill="#566069"/>
    <rect x="385.57" y="521.8" width="31" height="1" fill="#3daee9"/>
    <rect x="386.57" y="523.8" width="29" height="44" fill="#fff"/>
    <rect x="413.57" y="518.8" width="2" height="2" rx="1" fill="#eff0f1"/>
  </g>
  <g transform="translate(-352.57 -511.8)">
    <rect x="385.57" y="517.8" width="31" height="25" rx="0" fill="url(#a)"/>
    <path d="m386.57 540.8 29-17 1 1-2e-5 18h-28z" fill="url(#e)" fill-rule="evenodd" opacity=".2"/>
    <rect x="385.57" y="517.8" width="31" height="4" fill="#566069"/>
    <rect x="385.57" y="521.8" width="31" height="1" fill="#3daee9"/>
    <rect x="386.57" y="523.8" width="29" height="17" fill="#fff"/>
    <rect x="413.57" y="518.8" width="2" height="2" rx="1" fill="#eff0f1"/>
  </g>
  <g transform="translate(-352.57 -484.8)">
    <rect x="385.57" y="517.8" width="31" height="25" rx="0" fill="url(#a)"/>
    <path d="m386.57 540.8 29-17 1 1-2e-5 18h-28z" fill="url(#e)" fill-rule="evenodd" opacity=".2"/>
    <rect x="385.57" y="517.8" width="31" height="4" fill="#566069"/>
    <rect x="385.57" y="521.8" width="31" height="1" fill="#3daee9"/>
    <rect x="386.57" y="523.8" width="29" height="17" fill="#fff"/>
    <rect x="413.57" y="518.8" width="2" height="2" rx="1" fill="#eff0f1"/>
  </g>
</svg>
